{"title":"Terminator Salvation[2009]DvDRip[Eng]-Uvall","uid":5167706,"size":1272229151,"categoryP":"video","categoryS":"movies","magnet":"?xt=urn:btih:f3b47090e43ec685a5caa8305f7638f8cb76291e&amp;dn=Terminator+Salvation%5B2009%5DDvDRip%5BEng%5D-Uvall&amp;tr=udp%3A%2F%2Ftracker.openbittorrent.com%3A80&amp;tr=udp%3A%2F%2Fopen.demonii.com%3A1337&amp;tr=udp%3A%2F%2Ftracker.coppersurfer.tk%3A6969&amp;tr=udp%3A%2F%2Fexodus.desync.com%3A6969","seeders":0,"leechers":1,"uploader":"Uvall","files":5,"time":1258501848,"description":"~~~~~~~~~~~~~~~~~~~~~~~~~~~~~~~~~~~~~~~~~~~~~~~~~~~~~~~~~~~~~~~~~~~\nTitle: Terminator Salvation[2009]\n~~~~~~~~~~~~~~~~~~~~~~~~~~~~~~~~~~~~~~~~~~~~~~~~~~~~~~~~~~~~~~~~~~~\n~~~~~~~~~~~~~~~~~~~~~~~~~~~~~~~~~~~~~~~~~~~~~~~~~~~~~~~~~~~~~~~~~~~\nRelease Notes\n\nGenre: Action | Adventure | Sci-Fi | Thriller\n\nRated: PG-13 for intense sequences of sci-fi violence and action, \n       and language.\n\nMovie Information: http://www.imdb.com/title/tt0438488/\n\nPlot: After Skynet has destroyed much of humanity in a nuclear \n      holocaust, a group of survivors led by John Connor struggles \n      to keep the machines from finishing the job.\n\nFormat                           : AVI\nFormat/Info                      : Audio Video Interleave\nFile size                        : 1.18 GiB\nDuration                         : 1h 54mn\nOverall bit rate                 : 1 466 Kbps\nMovie name                       : Terminator Salvation[2009]DvDRip[Eng]-Uvall\nWriting application              : Lavf52.33.0\n\nVideo\nFormat                           : MPEG-4 Visual\nFormat profile                   : Simple@L3\nFormat settings, BVOP            : No\nFormat settings, QPel            : No\nFormat settings, GMC             : No warppoints\nFormat settings, Matrix          : Default (H.263)\nCodec ID                         : XVID\nCodec ID/Hint                    : XviD\nDuration                         : 1h 54mn\nBit rate                         : 1 007 Kbps\nWidth                            : 704 pixels\nHeight                           : 290 pixels\nDisplay aspect ratio             : 2.40:1\nFrame rate                       : 23.976 fps\nResolution                       : 24 bits\nColorimetry                      : 4:2:0\nScan type                        : Progressive\nBits/(Pixel*Frame)               : 0.206\nStream size                      : 827 MiB (69%)\nWriting library                  : XviD 1.2.1 (UTC 2008-12-04)\n\nAudio\nFormat                           : AC-3\nFormat/Info                      : Audio Coding 3\nCodec ID                         : 2000\nDuration                         : 1h 54mn\nBit rate mode                    : Constant\nBit rate                         : 448 Kbps\nChannel(s)                       : 6 channels\nChannel positions                : Front: L C R, Surround: L R, LFE\nSampling rate                    : 48.0 KHz\nStream size                      : 368 MiB (31%)\nAlignment                        : Aligned on interleaves\nInterleave, duration             : 32 ms (0.77 video frame)\n~~~~~~~~~~~~~~~~~~~~~~~~~~~~~~~~~~~~~~~~~~~~~~~~~~~~~~~~~~~~~~~~~~~\n~~~~~~~~~~~~~~~~~~~~~~~~~~~~~~~~~~~~~~~~~~~~~~~~~~~~~~~~~~~~~~~~~~~\nPosted By: Uvall\n~~~~~~~~~~~~~~~~~~~~~~~~~~~~~~~~~~~~~~~~~~~~~~~~~~~~~~~~~~~~~~~~~~~","torrent":{"xt":"urn:btih:f3b47090e43ec685a5caa8305f7638f8cb76291e","amp;dn":"Terminator+Salvation%5B2009%5DDvDRip%5BEng%5D-Uvall","amp;tr":["udp%3A%2F%2Ftracker.openbittorrent.com%3A80","udp%3A%2F%2Fopen.demonii.com%3A1337","udp%3A%2F%2Ftracker.coppersurfer.tk%3A6969","udp%3A%2F%2Fexodus.desync.com%3A6969"],"infoHash":"f3b47090e43ec685a5caa8305f7638f8cb76291e","infoHashBuffer":{"type":"Buffer","data":[243,180,112,144,228,62,198,133,165,202,168,48,95,118,56,248,203,118,41,30]},"announce":[],"urlList":[]}}